name rise34.3697peak60.0498fall86.3158.mot
datacolumns 19
datarows 14
range 7.76497400000000 7.78663800000000
endheader
time	ground_force1_vx	ground_force1_vy	ground_force1_vz	ground_force1_px	ground_force1_py	ground_force1_pz	ground_force2_vx	ground_force2_vy	ground_force2_vz	ground_force2_px	ground_force2_py	ground_force2_pz	ground_torque1_x	ground_torque1_y	ground_torque1_z	ground_torque2_x	ground_torque2_y	ground_torque2_z	
7.76497400000000	-11.04185700000000	45.68362900000000	-5.38235300000000	0.41486600000000	0.00000000000000	0.10568000000000	-51.74491000000000	814.18256699999995	-61.37968300000000	0.22210800000000	0.00000000000000	-0.08102500000000	0.00000000000000	-3.81785900000000	0.00000000000000	0.00000000000000	-33.94968600000000	0.00000000000000	
7.76663700000000	-11.90546100000000	52.33102500000000	-5.85616900000000	0.41665800000000	0.00000000000000	0.10651000000000	-52.11335700000000	810.78450899999996	-60.96450800000000	0.22112700000000	0.00000000000000	-0.08096600000000	0.00000000000000	-4.17460800000000	0.00000000000000	0.00000000000000	-33.69686700000000	0.00000000000000	
7.76830700000000	-12.57158400000000	58.94504700000000	-6.24553200000000	0.41846100000000	0.00000000000000	0.10726300000000	-52.47776500000000	807.25123900000006	-60.52388200000000	0.22014500000000	0.00000000000000	-0.08090400000000	0.00000000000000	-4.47883100000000	0.00000000000000	0.00000000000000	-33.43601200000000	0.00000000000000	
7.76996600000000	-13.02404900000000	65.46194600000000	-6.54193800000000	0.42026800000000	0.00000000000000	0.10794800000000	-52.83830600000000	803.58304799999996	-60.05791200000000	0.21916200000000	0.00000000000000	-0.08083800000000	0.00000000000000	-4.72482900000000	0.00000000000000	0.00000000000000	-33.16738000000000	0.00000000000000	
7.77164000000000	-13.25718700000000	71.84241900000001	-6.74162200000000	0.42207400000000	0.00000000000000	0.10857600000000	-53.19513100000000	799.78018699999996	-59.56674500000000	0.21817900000000	0.00000000000000	-0.08076800000000	0.00000000000000	-4.91005600000000	0.00000000000000	0.00000000000000	-32.89124100000000	0.00000000000000	
7.77330200000000	-13.27489100000000	78.07114300000001	-6.84518700000000	0.42387600000000	0.00000000000000	0.10915400000000	-53.54837700000000	795.84286499999996	-59.05056700000000	0.21719600000000	0.00000000000000	-0.08069400000000	0.00000000000000	-5.03487900000000	0.00000000000000	0.00000000000000	-32.60787000000000	0.00000000000000	
7.77496900000000	-13.08905500000000	84.15440400000000	-6.85692200000000	0.42567300000000	0.00000000000000	0.10968600000000	-53.89815400000000	791.77124700000002	-58.50960200000000	0.21621300000000	0.00000000000000	-0.08061600000000	0.00000000000000	-5.10213800000000	0.00000000000000	0.00000000000000	-32.31755100000000	0.00000000000000	
7.77663700000000	-12.71762100000000	90.11635000000000	-6.78395500000000	0.42746100000000	0.00000000000000	0.11017900000000	-54.24454900000000	787.56545200000005	-57.94411500000000	0.21523200000000	0.00000000000000	-0.08053300000000	0.00000000000000	-5.11658200000000	0.00000000000000	0.00000000000000	-32.02057600000000	0.00000000000000	
7.77830600000000	-12.18247100000000	95.99442500000001	-6.63530400000000	0.42924000000000	0.00000000000000	0.11063600000000	-54.58761900000000	783.22555399999999	-57.35441200000000	0.21425300000000	0.00000000000000	-0.08044700000000	0.00000000000000	-5.08423400000000	0.00000000000000	0.00000000000000	-31.71723900000000	0.00000000000000	
7.77997000000000	-11.50736500000000	101.83449299999999	-6.42095400000000	0.43100800000000	0.00000000000000	0.11106200000000	-54.92739100000000	778.75157700000000	-56.74083700000000	0.21327700000000	0.00000000000000	-0.08035600000000	0.00000000000000	-5.01177400000000	0.00000000000000	0.00000000000000	-31.40784100000000	0.00000000000000	
7.78164000000000	-10.71608500000000	107.68611100000000	-6.15100500000000	0.43276400000000	0.00000000000000	0.11145900000000	-55.26385500000000	774.14350000000002	-56.10377500000000	0.21230500000000	0.00000000000000	-0.08026000000000	0.00000000000000	-4.90595300000000	0.00000000000000	0.00000000000000	-31.09268500000000	0.00000000000000	
7.78330800000000	-9.83088500000000	113.59829600000000	-5.83496200000000	0.43450900000000	0.00000000000000	0.11183000000000	-55.59696600000000	769.40125599999999	-55.44365000000000	0.21133700000000	0.00000000000000	-0.08016000000000	0.00000000000000	-4.77311400000000	0.00000000000000	0.00000000000000	-30.77207600000000	0.00000000000000	
7.78497200000000	-8.87133800000000	119.61603500000000	-5.48119300000000	0.43624200000000	0.00000000000000	0.11217700000000	-55.92663700000000	764.52473499999996	-54.76092500000000	0.21037500000000	0.00000000000000	-0.08005600000000	0.00000000000000	-4.61881500000000	0.00000000000000	0.00000000000000	-30.44632000000000	0.00000000000000	
7.78663800000000	-7.85357900000000	125.77768100000000	-5.09657100000000	0.43796200000000	0.00000000000000	0.11250200000000	-56.25273700000000	759.51378199999999	-54.05610400000000	0.20941900000000	0.00000000000000	-0.07994700000000	0.00000000000000	-4.44757800000000	0.00000000000000	0.00000000000000	-30.11572300000000	0.00000000000000	
